HIERARCHY
ROOT Hips
{
	OFFSET 0.000000 0.000000 0.000000
	CHANNELS 6 Xposition Yposition Zposition Xrotation Yrotation Zrotation
	JOINT LeftUpLeg_virtual
	{
		OFFSET 0.000000 0.000000 0.000000
		CHANNELS 3 Xrotation Yrotation Zrotation
		JOINT LeftUpLeg
		{
			OFFSET 11.394100 -6.187798 -0.413800
			CHANNELS 3 Xrotation Yrotation Zrotation
			JOINT LeftLeg
			{
				OFFSET 0.430247 -32.302673 3.732800
				CHANNELS 3 Xrotation Yrotation Zrotation
				JOINT LeftFoot
				{
					OFFSET -0.430247 -48.264931 -6.423300
					CHANNELS 3 Xrotation Yrotation Zrotation
					JOINT LeftToeBase
					{
						OFFSET 4.230900 -16.068199 23.438400
						CHANNELS 3 Xrotation Yrotation Zrotation
						JOINT LeftToe_End
						{
							OFFSET 4.510700 0.695400 19.974600
							CHANNELS 3 Xrotation Yrotation Zrotation
							End Site
							{
								OFFSET 0 0 0
							}
						}
					}
				}
			}
		}
	}
	JOINT RightUpLeg_virtual
	{
		OFFSET 0.000000 0.000000 0.000000
		CHANNELS 3 Xrotation Yrotation Zrotation
		JOINT RightUpLeg
		{
			OFFSET -11.333700 -6.187798 -0.413800
			CHANNELS 3 Xrotation Yrotation Zrotation
			JOINT RightLeg
			{
				OFFSET -0.430392 -32.302628 3.733000
				CHANNELS 3 Xrotation Yrotation Zrotation
				JOINT RightFoot
				{
					OFFSET 0.430392 -48.264973 -6.423500
					CHANNELS 3 Xrotation Yrotation Zrotation
					JOINT RightToeBase
					{
						OFFSET -4.230900 -16.068199 23.438400
						CHANNELS 3 Xrotation Yrotation Zrotation
						JOINT RightToe_End
						{
							OFFSET -4.510700 0.695400 19.974600
							CHANNELS 3 Xrotation Yrotation Zrotation
							End Site
							{
								OFFSET 0 0 0
							}
						}
					}
				}
			}
		}
	}
	JOINT Spine_virtual
	{
		OFFSET 0.000000 0.000000 0.000000
		CHANNELS 3 Xrotation Yrotation Zrotation
		JOINT Spine
		{
			OFFSET -0.002400 12.777504 0.315300
			CHANNELS 3 Xrotation Yrotation Zrotation
			JOINT Spine1
			{
				OFFSET -0.002067 5.816869 0.032633
				CHANNELS 3 Xrotation Yrotation Zrotation
				JOINT Spine1_split
				{
					OFFSET -0.002067 5.816869 0.032633
					CHANNELS 3 Xrotation Yrotation Zrotation
					JOINT Spine2
					{
						OFFSET -0.002067 5.816869 0.032633
						CHANNELS 3 Xrotation Yrotation Zrotation
						JOINT Neck_virtual
						{
							OFFSET 0.000000 0.000000 0.000000
							CHANNELS 3 Xrotation Yrotation Zrotation
							JOINT Neck
							{
								OFFSET -0.003700 21.199493 -0.826900
								CHANNELS 3 Xrotation Yrotation Zrotation
								JOINT Head
								{
									OFFSET 0.000000 20.442200 4.834800
									CHANNELS 3 Xrotation Yrotation Zrotation
									JOINT HeadTop_End
									{
										OFFSET 0.000000 34.668396 4.968400
										CHANNELS 3 Xrotation Yrotation Zrotation
										End Site
										{
											OFFSET 0 0 0
										}
									}
								}
							}
						}
						JOINT LeftShoulder_virtual
						{
							OFFSET 0.000000 0.000000 0.000000
							CHANNELS 3 Xrotation Yrotation Zrotation
							JOINT LeftShoulder
							{
								OFFSET 3.288150 8.794197 -1.372250
								CHANNELS 3 Xrotation Yrotation Zrotation
								JOINT LeftShoulder_split
								{
									OFFSET 3.288150 8.794197 -1.372250
									CHANNELS 3 Xrotation Yrotation Zrotation
									JOINT LeftArm
									{
										OFFSET 11.953299 -2.279007 -0.146200
										CHANNELS 3 Xrotation Yrotation Zrotation
										JOINT LeftForeArm
										{
											OFFSET 18.448900 0.000000 0.000000
											CHANNELS 3 Xrotation Yrotation Zrotation
											JOINT LeftHand
											{
												OFFSET 29.527798 0.000000 0.000000
												CHANNELS 3 Xrotation Yrotation Zrotation
												End Site
												{
													OFFSET 0 0 0
												}
											}
										}
									}
								}
							}
						}
						JOINT RightShoulder_virtual
						{
							OFFSET 0.000000 0.000000 0.000000
							CHANNELS 3 Xrotation Yrotation Zrotation
							JOINT RightShoulder
							{
								OFFSET -3.249400 8.794197 -1.372250
								CHANNELS 3 Xrotation Yrotation Zrotation
								JOINT RightShoulder_split
								{
									OFFSET -3.249400 8.794197 -1.372250
									CHANNELS 3 Xrotation Yrotation Zrotation
									JOINT RightArm
									{
										OFFSET -11.953299 -2.279007 -0.146200
										CHANNELS 3 Xrotation Yrotation Zrotation
										JOINT RightForeArm
										{
											OFFSET -18.448900 0.000000 0.000000
											CHANNELS 3 Xrotation Yrotation Zrotation
											JOINT RightHand
											{
												OFFSET -29.527802 0.000000 0.000000
												CHANNELS 3 Xrotation Yrotation Zrotation
												End Site
												{
													OFFSET 0 0 0
												}
											}
										}
									}
								}
							}
						}
					}
				}
			}
		}
	}
}
MOTION
Frames: 4
Frame Time: 0.03333333
6.239152 103.042648 -15.772923 0.000000 0.000000 0.000000 2.962726 24.666115 1.306349 -13.248139 8.440807 0.912617 16.073800 8.890038 6.842776 -1.743284 -0.794937 -9.407795 -5.377267 -3.957928 5.366956 0.000000 0.000000 0.000000 3.658230 21.177304 1.071662 -3.581879 -7.037817 2.068810 10.505423 0.679697 -3.260558 -13.427938 -25.010544 10.351176 3.167106 3.886495 -15.917443 0.000000 0.000000 0.000000 4.575795 25.766288 0.345088 7.705223 1.496536 1.948451 3.390451 2.470105 -1.056812 0.204958 -1.106089 0.129905 0.000000 0.000000 0.000000 3.690631 6.708759 -0.281654 -14.884847 18.167596 9.470284 -127.481437 -58.399422 -163.451017 0.000000 0.000000 0.000000 3.143277 2.423216 -0.284948 -0.949025 -31.322049 -12.219826 2.387922 -0.000662 -5.056145 20.488003 19.655331 -75.558572 -5.567113 -33.513805 -3.306564 0.000000 0.000000 0.000000 -2.056879 2.081230 1.088348 -5.553163 8.242636 19.476558 -17.425211 -8.345132 3.431306 41.470747 8.180472 47.704169 -16.511422 31.260567 26.848237 0.000000 0.000000 0.000000 
6.197324 103.004150 -15.661961 0.000000 0.000000 0.000000 2.995287 24.801337 1.298493 -13.186242 8.405814 0.908423 16.062747 8.982226 6.845270 -1.782517 -0.763883 -9.247181 -5.385862 -3.959261 5.393836 0.000000 0.000000 0.000000 3.634420 21.226717 1.068275 -3.564236 -7.071241 2.142521 10.552368 0.584073 -3.274714 -13.498768 -25.032527 10.316572 2.925199 3.966589 -16.015498 0.000000 0.000000 0.000000 4.580999 25.880956 0.351426 7.675557 1.511680 1.883065 3.395641 2.458988 -1.108539 0.229027 -1.117497 0.115785 0.000000 0.000000 0.000000 3.766808 6.717643 -0.238744 -14.906721 18.190242 9.526328 -127.581896 -58.490557 -163.514169 0.000000 0.000000 0.000000 3.138415 2.432052 -0.320047 -0.907086 -31.208111 -12.285051 1.973689 -0.063016 -4.955647 20.744529 19.535041 -75.560347 -5.722651 -33.823380 -3.394072 0.000000 0.000000 0.000000 -2.130471 2.064869 1.168585 -5.510921 8.027913 19.431721 -17.395761 -8.107661 3.502223 41.545162 7.726207 47.976943 -16.485601 31.120944 26.857800 0.000000 0.000000 0.000000 
6.141368 102.974586 -15.533287 0.000000 0.000000 0.000000 3.066393 24.941645 1.234583 -13.179314 8.287458 0.945268 16.033432 9.157164 6.874459 -1.809589 -0.679462 -9.206870 -5.510198 -3.948914 5.392389 0.000000 0.000000 0.000000 3.685151 21.441620 0.990709 -3.474351 -7.065782 2.267622 10.489604 0.448462 -3.275786 -13.448951 -25.019104 10.440993 2.604735 4.014827 -15.935670 0.000000 0.000000 0.000000 4.551452 26.063348 0.322362 7.621975 1.542643 1.752409 3.394578 2.542048 -1.068929 0.220886 -1.097532 0.115706 0.000000 0.000000 0.000000 3.856913 6.812502 -0.157419 -14.945782 18.099375 9.605734 -127.875731 -58.610297 -163.421278 0.000000 0.000000 0.000000 3.084024 2.516696 -0.325343 -0.911786 -31.207592 -12.397004 1.636530 -0.214154 -4.774846 20.978948 19.495564 -75.628629 -5.994081 -33.826034 -3.570543 0.000000 0.000000 0.000000 -2.181365 2.155434 1.334073 -5.508595 7.604491 19.365832 -17.381443 -7.838476 3.619184 41.609973 7.153187 48.240725 -16.580107 31.191254 27.070639 0.000000 0.000000 0.000000 
6.088386 102.961731 -15.396255 0.000000 0.000000 0.000000 3.161026 25.043693 1.116408 -13.220788 8.085137 1.011564 15.992965 9.398071 6.916146 -1.846859 -0.559927 -9.289611 -5.710874 -3.927674 5.385804 0.000000 0.000000 0.000000 3.778591 21.714339 0.859666 -3.349000 -7.025681 2.421305 10.297640 0.276885 -3.281599 -13.407201 -24.969911 10.635571 2.387034 4.014832 -15.693265 0.000000 0.000000 0.000000 4.514446 26.226791 0.250354 7.550120 1.581553 1.591124 3.391882 2.716906 -0.948669 0.186054 -1.064347 0.120942 0.000000 0.000000 0.000000 3.957948 6.987425 -0.059135 -14.999985 17.896356 9.712200 -128.374225 -58.698946 -163.198518 0.000000 0.000000 0.000000 2.981804 2.673056 -0.299042 -0.959744 -31.345121 -12.511628 1.365538 -0.444629 -4.559162 21.063639 19.521352 -75.669808 -6.326556 -33.457238 -3.797857 0.000000 0.000000 0.000000 -2.212701 2.342306 1.548875 -5.552489 7.027666 19.258171 -17.376732 -7.727565 3.827295 41.655678 6.681422 48.484576 -16.757663 31.512348 27.391538 0.000000 0.000000 0.000000 
